<svg xmlns="http://www.w3.org/2000/svg" viewBox="0 0 1600 900"><defs>
<radialGradient id="bg" cx="50%" cy="46%" r="72%"><stop offset="0" stop-color="#07111b"/><stop offset=".56" stop-color="#02060b"/><stop offset="1" stop-color="#000"/></radialGradient>
<linearGradient id="steel" x1="0" y1="0" x2="1" y2="1"><stop stop-color="#f3f7fb"/><stop offset=".38" stop-color="#a8c3dd"/><stop offset="1" stop-color="#4f6d88"/></linearGradient>
<linearGradient id="warm" x1="0" y1="0" x2="1" y2="1"><stop stop-color="#d9c9bd"/><stop offset="1" stop-color="#7c6456"/></linearGradient>
<filter id="g"><feGaussianBlur stdDeviation="10" result="b"/><feMerge><feMergeNode in="b"/><feMergeNode in="SourceGraphic"/></feMerge></filter>
<filter id="s"><feGaussianBlur stdDeviation="34"/></filter>
</defs><rect width="1600" height="900" fill="url(#bg)"/><circle cx="442.741859484089" cy="189.48990582734956" r="191.96314433291843" fill="#6e9cc5" opacity=".028" filter="url(#s)"/><path d="M82 0V900" stroke="#aac0d2" stroke-opacity=".035"/><path d="M202 0V900" stroke="#aac0d2" stroke-opacity=".035"/><path d="M322 0V900" stroke="#aac0d2" stroke-opacity=".035"/><path d="M442 0V900" stroke="#aac0d2" stroke-opacity=".035"/><path d="M562 0V900" stroke="#aac0d2" stroke-opacity=".035"/><path d="M682 0V900" stroke="#aac0d2" stroke-opacity=".035"/><path d="M802 0V900" stroke="#aac0d2" stroke-opacity=".035"/><path d="M922 0V900" stroke="#aac0d2" stroke-opacity=".035"/><path d="M1042 0V900" stroke="#aac0d2" stroke-opacity=".035"/><path d="M1162 0V900" stroke="#aac0d2" stroke-opacity=".035"/><path d="M1282 0V900" stroke="#aac0d2" stroke-opacity=".035"/><path d="M1402 0V900" stroke="#aac0d2" stroke-opacity=".035"/><path d="M1522 0V900" stroke="#aac0d2" stroke-opacity=".035"/><path d="M0 72H1600" stroke="#aac0d2" stroke-opacity=".03"/><path d="M0 192H1600" stroke="#aac0d2" stroke-opacity=".03"/><path d="M0 312H1600" stroke="#aac0d2" stroke-opacity=".03"/><path d="M0 432H1600" stroke="#aac0d2" stroke-opacity=".03"/><path d="M0 552H1600" stroke="#aac0d2" stroke-opacity=".03"/><path d="M0 672H1600" stroke="#aac0d2" stroke-opacity=".03"/><path d="M0 792H1600" stroke="#aac0d2" stroke-opacity=".03"/><circle cx="329" cy="462" r="2.1" fill="#dfeaf4" opacity="0.10"/><circle cx="502" cy="559" r="1.1" fill="#dfeaf4" opacity="0.12"/><circle cx="675" cy="656" r="1.1" fill="#dfeaf4" opacity="0.14"/><circle cx="848" cy="753" r="1.1" fill="#dfeaf4" opacity="0.16"/><circle cx="1021" cy="60" r="1.1" fill="#dfeaf4" opacity="0.07"/><circle cx="1194" cy="157" r="2.1" fill="#dfeaf4" opacity="0.09"/><circle cx="1367" cy="254" r="1.1" fill="#dfeaf4" opacity="0.11"/><circle cx="80" cy="351" r="1.1" fill="#dfeaf4" opacity="0.13"/><circle cx="253" cy="448" r="1.1" fill="#dfeaf4" opacity="0.15"/><circle cx="426" cy="545" r="1.1" fill="#dfeaf4" opacity="0.06"/><circle cx="599" cy="642" r="2.1" fill="#dfeaf4" opacity="0.08"/><circle cx="772" cy="739" r="1.1" fill="#dfeaf4" opacity="0.10"/><circle cx="945" cy="836" r="1.1" fill="#dfeaf4" opacity="0.12"/><circle cx="1118" cy="143" r="1.1" fill="#dfeaf4" opacity="0.14"/><circle cx="1291" cy="240" r="1.1" fill="#dfeaf4" opacity="0.16"/><circle cx="1464" cy="337" r="2.1" fill="#dfeaf4" opacity="0.07"/><circle cx="177" cy="434" r="1.1" fill="#dfeaf4" opacity="0.09"/><circle cx="350" cy="531" r="1.1" fill="#dfeaf4" opacity="0.11"/><path d="M621 70V830" stroke="#e5eef6" stroke-opacity=".035" stroke-width="2"/><g>
 <circle cx="760" cy="450" r="238" fill="none" stroke="#8fa1b1" stroke-opacity=".08" stroke-width="26"/>
 <circle cx="760" cy="450" r="238" fill="none" stroke="url(#steel)" stroke-width="24" stroke-linecap="round" pathLength="100" stroke-dasharray="20.2 100" transform="rotate(-90 760 450)"/>
 <path d="M760.0 244.0L760.0 228.0" stroke="#d8e7f2" stroke-opacity="0.72" stroke-width="3"/><path d="M813.3 251.0L817.5 235.6" stroke="#6f7d88" stroke-opacity="0.13" stroke-width="1"/><path d="M863.0 271.6L871.0 257.7" stroke="#6f7d88" stroke-opacity="0.13" stroke-width="1"/><path d="M905.7 304.3L917.0 293.0" stroke="#6f7d88" stroke-opacity="0.13" stroke-width="1"/><path d="M938.4 347.0L952.3 339.0" stroke="#6f7d88" stroke-opacity="0.13" stroke-width="1"/><path d="M959.0 396.7L974.4 392.5" stroke="#6f7d88" stroke-opacity="0.13" stroke-width="1"/><path d="M966.0 450.0L982.0 450.0" stroke="#6f7d88" stroke-opacity="0.13" stroke-width="1"/><path d="M959.0 503.3L974.4 507.5" stroke="#6f7d88" stroke-opacity="0.13" stroke-width="1"/><path d="M938.4 553.0L952.3 561.0" stroke="#6f7d88" stroke-opacity="0.13" stroke-width="1"/><path d="M905.7 595.7L917.0 607.0" stroke="#6f7d88" stroke-opacity="0.13" stroke-width="1"/><path d="M863.0 628.4L871.0 642.3" stroke="#6f7d88" stroke-opacity="0.13" stroke-width="1"/><path d="M813.3 649.0L817.5 664.4" stroke="#6f7d88" stroke-opacity="0.13" stroke-width="1"/><path d="M760.0 656.0L760.0 672.0" stroke="#6f7d88" stroke-opacity="0.13" stroke-width="1"/><path d="M706.7 649.0L702.5 664.4" stroke="#6f7d88" stroke-opacity="0.13" stroke-width="1"/><path d="M657.0 628.4L649.0 642.3" stroke="#6f7d88" stroke-opacity="0.13" stroke-width="1"/><path d="M614.3 595.7L603.0 607.0" stroke="#6f7d88" stroke-opacity="0.13" stroke-width="1"/><path d="M581.6 553.0L567.7 561.0" stroke="#6f7d88" stroke-opacity="0.13" stroke-width="1"/><path d="M561.0 503.3L545.6 507.5" stroke="#6f7d88" stroke-opacity="0.13" stroke-width="1"/><path d="M554.0 450.0L538.0 450.0" stroke="#6f7d88" stroke-opacity="0.13" stroke-width="1"/><path d="M561.0 396.7L545.6 392.5" stroke="#6f7d88" stroke-opacity="0.13" stroke-width="1"/><path d="M581.6 347.0L567.7 339.0" stroke="#6f7d88" stroke-opacity="0.13" stroke-width="1"/><path d="M614.3 304.3L603.0 293.0" stroke="#6f7d88" stroke-opacity="0.13" stroke-width="1"/><path d="M657.0 271.6L649.0 257.7" stroke="#6f7d88" stroke-opacity="0.13" stroke-width="1"/><path d="M706.7 251.0L702.5 235.6" stroke="#6f7d88" stroke-opacity="0.13" stroke-width="1"/><circle cx="760" cy="450" r="154" fill="#03090f" stroke="#a7bacb" stroke-opacity=".14"/>
 <path d="M760 450L783.0 306.8" stroke="#c8dcec" stroke-width="5" stroke-linecap="round"/><circle cx="760" cy="450" r="11" fill="#eef5fb"/>
 <circle cx="945.3" cy="300.7" r="10" fill="#dce9f4" filter="url(#g)"/>
 <rect x="1080" y="300" width="265" height="68" rx="17" fill="#06101a" stroke="#c1ced9" stroke-opacity="0.19"/>
 <rect x="1080" y="416" width="265" height="68" rx="17" fill="#06101a" stroke="#c1ced9" stroke-opacity="0.13"/>
 <rect x="1080" y="532" width="265" height="68" rx="17" fill="#06101a" stroke="#c1ced9" stroke-opacity="0.09"/>
 <path d="M1008 450H1076" stroke="#90b6d7" stroke-width="4" stroke-opacity=".7"/>
 <path d="M1130 336H1133.7142857142858" stroke="#9ebfdd" stroke-width="6" stroke-linecap="round"/>
 <path d="M1130 452H1133" stroke="#7c9bb7" stroke-width="6" stroke-linecap="round"/>
 </g><path d="M92 808H286" stroke="#9fb2c2" stroke-opacity=".15"/><circle cx="76" cy="808" r="3" fill="#dce7f0" opacity=".5"/></svg>