<svg xmlns="http://www.w3.org/2000/svg" viewBox="0 0 1600 900"><defs>
<radialGradient id="bg" cx="50%" cy="46%" r="72%"><stop offset="0" stop-color="#07111b"/><stop offset=".56" stop-color="#02060b"/><stop offset="1" stop-color="#000"/></radialGradient>
<linearGradient id="steel" x1="0" y1="0" x2="1" y2="1"><stop stop-color="#f3f7fb"/><stop offset=".38" stop-color="#a8c3dd"/><stop offset="1" stop-color="#4f6d88"/></linearGradient>
<linearGradient id="warm" x1="0" y1="0" x2="1" y2="1"><stop stop-color="#d9c9bd"/><stop offset="1" stop-color="#7c6456"/></linearGradient>
<filter id="g"><feGaussianBlur stdDeviation="10" result="b"/><feMerge><feMergeNode in="b"/><feMergeNode in="SourceGraphic"/></feMerge></filter>
<filter id="s"><feGaussianBlur stdDeviation="34"/></filter>
</defs><rect width="1600" height="900" fill="url(#bg)"/><circle cx="664.9068393878641" cy="273.96942593536096" r="224.7980802740355" fill="#6e9cc5" opacity=".028" filter="url(#s)"/><path d="M86 0V900" stroke="#aac0d2" stroke-opacity=".035"/><path d="M206 0V900" stroke="#aac0d2" stroke-opacity=".035"/><path d="M326 0V900" stroke="#aac0d2" stroke-opacity=".035"/><path d="M446 0V900" stroke="#aac0d2" stroke-opacity=".035"/><path d="M566 0V900" stroke="#aac0d2" stroke-opacity=".035"/><path d="M686 0V900" stroke="#aac0d2" stroke-opacity=".035"/><path d="M806 0V900" stroke="#aac0d2" stroke-opacity=".035"/><path d="M926 0V900" stroke="#aac0d2" stroke-opacity=".035"/><path d="M1046 0V900" stroke="#aac0d2" stroke-opacity=".035"/><path d="M1166 0V900" stroke="#aac0d2" stroke-opacity=".035"/><path d="M1286 0V900" stroke="#aac0d2" stroke-opacity=".035"/><path d="M1406 0V900" stroke="#aac0d2" stroke-opacity=".035"/><path d="M1526 0V900" stroke="#aac0d2" stroke-opacity=".035"/><path d="M0 76H1600" stroke="#aac0d2" stroke-opacity=".03"/><path d="M0 196H1600" stroke="#aac0d2" stroke-opacity=".03"/><path d="M0 316H1600" stroke="#aac0d2" stroke-opacity=".03"/><path d="M0 436H1600" stroke="#aac0d2" stroke-opacity=".03"/><path d="M0 556H1600" stroke="#aac0d2" stroke-opacity=".03"/><path d="M0 676H1600" stroke="#aac0d2" stroke-opacity=".03"/><path d="M0 796H1600" stroke="#aac0d2" stroke-opacity=".03"/><circle cx="259" cy="352" r="2.1" fill="#dfeaf4" opacity="0.11"/><circle cx="432" cy="449" r="1.1" fill="#dfeaf4" opacity="0.13"/><circle cx="605" cy="546" r="1.1" fill="#dfeaf4" opacity="0.15"/><circle cx="778" cy="643" r="1.1" fill="#dfeaf4" opacity="0.06"/><circle cx="951" cy="740" r="1.1" fill="#dfeaf4" opacity="0.08"/><circle cx="1124" cy="837" r="2.1" fill="#dfeaf4" opacity="0.10"/><circle cx="1297" cy="144" r="1.1" fill="#dfeaf4" opacity="0.12"/><circle cx="1470" cy="241" r="1.1" fill="#dfeaf4" opacity="0.14"/><circle cx="183" cy="338" r="1.1" fill="#dfeaf4" opacity="0.16"/><circle cx="356" cy="435" r="1.1" fill="#dfeaf4" opacity="0.07"/><circle cx="529" cy="532" r="2.1" fill="#dfeaf4" opacity="0.09"/><circle cx="702" cy="629" r="1.1" fill="#dfeaf4" opacity="0.11"/><circle cx="875" cy="726" r="1.1" fill="#dfeaf4" opacity="0.13"/><circle cx="1048" cy="823" r="1.1" fill="#dfeaf4" opacity="0.15"/><circle cx="1221" cy="130" r="1.1" fill="#dfeaf4" opacity="0.06"/><circle cx="1394" cy="227" r="2.1" fill="#dfeaf4" opacity="0.08"/><circle cx="107" cy="324" r="1.1" fill="#dfeaf4" opacity="0.10"/><circle cx="280" cy="421" r="1.1" fill="#dfeaf4" opacity="0.12"/><path d="M491 70V830" stroke="#e5eef6" stroke-opacity=".035" stroke-width="2"/><g>
 <circle cx="800" cy="450" r="278" fill="none" stroke="#b5c7d6" stroke-opacity=".08"/>
 <circle cx="800" cy="450" r="220" fill="none" stroke="#b5c7d6" stroke-opacity=".11"/>
 <circle cx="800" cy="450" r="174" fill="none" stroke="url(#steel)" stroke-opacity=".72" stroke-width="5" pathLength="100" stroke-dasharray="72.9 100" transform="rotate(133.71428571428572 800 450)"/>
 <path d="M520 450H655M945 450H1082" stroke="#88aed0" stroke-opacity=".75" stroke-width="4" stroke-linecap="round"/>
 <rect x="655" y="300" width="290" height="300" rx="52" fill="#06101a" stroke="#a9bdcf" stroke-opacity=".5" stroke-width="2"/>
 <path d="M730 420V382c0-96 140-96 140 0v38" fill="none" stroke="#d6e2ec" stroke-width="10" stroke-linecap="round"/>
 <rect x="702" y="418" width="196" height="132" rx="22" fill="#0a1722" stroke="#e4edf4" stroke-opacity=".55"/>
 <circle cx="800" cy="472" r="13.263509807517702" fill="#c7dced" filter="url(#g)"/><path d="M800 488V520" stroke="#c7dced" stroke-width="7" stroke-linecap="round"/>
 <rect x="988.9" y="285" width="18" height="330" rx="9" fill="#9db8d1" opacity="0.60"/>
 <circle cx="862" cy="450" r="9" fill="#e2edf5" filter="url(#g)"/>
 <path d="M800 248V170M800 652V730" stroke="#738799" stroke-opacity="0.32" stroke-width="2"/>
 </g><path d="M92 808H286" stroke="#9fb2c2" stroke-opacity=".15"/><circle cx="76" cy="808" r="3" fill="#dce7f0" opacity=".5"/></svg>