<svg xmlns="http://www.w3.org/2000/svg" viewBox="0 0 1600 900"><defs><radialGradient id="bg" cx="50%" cy="46%" r="72%"><stop offset="0" stop-color="#07111b"/><stop offset=".56" stop-color="#02060b"/><stop offset="1" stop-color="#000"/></radialGradient><linearGradient id="steel" x1="0" y1="0" x2="1" y2="1"><stop stop-color="#f3f7fb"/><stop offset=".38" stop-color="#a8c3dd"/><stop offset="1" stop-color="#4f6d88"/></linearGradient><filter id="g"><feGaussianBlur stdDeviation="10" result="b"/><feMerge><feMergeNode in="b"/><feMergeNode in="SourceGraphic"/></feMerge></filter><filter id="s"><feGaussianBlur stdDeviation="34"/></filter></defs><rect width="1600" height="900" fill="url(#bg)"/><circle cx="759.8334063083162" cy="488.4272239716333" r="215.56622535189945" fill="#6e9cc5" opacity=".028" filter="url(#s)"/><path d="M84 0V900" stroke="#aac0d2" stroke-opacity=".035"/><path d="M204 0V900" stroke="#aac0d2" stroke-opacity=".035"/><path d="M324 0V900" stroke="#aac0d2" stroke-opacity=".035"/><path d="M444 0V900" stroke="#aac0d2" stroke-opacity=".035"/><path d="M564 0V900" stroke="#aac0d2" stroke-opacity=".035"/><path d="M684 0V900" stroke="#aac0d2" stroke-opacity=".035"/><path d="M804 0V900" stroke="#aac0d2" stroke-opacity=".035"/><path d="M924 0V900" stroke="#aac0d2" stroke-opacity=".035"/><path d="M1044 0V900" stroke="#aac0d2" stroke-opacity=".035"/><path d="M1164 0V900" stroke="#aac0d2" stroke-opacity=".035"/><path d="M1284 0V900" stroke="#aac0d2" stroke-opacity=".035"/><path d="M1404 0V900" stroke="#aac0d2" stroke-opacity=".035"/><path d="M1524 0V900" stroke="#aac0d2" stroke-opacity=".035"/><path d="M0 74H1600" stroke="#aac0d2" stroke-opacity=".03"/><path d="M0 194H1600" stroke="#aac0d2" stroke-opacity=".03"/><path d="M0 314H1600" stroke="#aac0d2" stroke-opacity=".03"/><path d="M0 434H1600" stroke="#aac0d2" stroke-opacity=".03"/><path d="M0 554H1600" stroke="#aac0d2" stroke-opacity=".03"/><path d="M0 674H1600" stroke="#aac0d2" stroke-opacity=".03"/><path d="M0 794H1600" stroke="#aac0d2" stroke-opacity=".03"/><circle cx="672" cy="211" r="2.1" fill="#dfeaf4" opacity="0.15"/><circle cx="845" cy="308" r="1.1" fill="#dfeaf4" opacity="0.06"/><circle cx="1018" cy="405" r="1.1" fill="#dfeaf4" opacity="0.08"/><circle cx="1191" cy="502" r="1.1" fill="#dfeaf4" opacity="0.10"/><circle cx="1364" cy="599" r="1.1" fill="#dfeaf4" opacity="0.12"/><circle cx="77" cy="696" r="2.1" fill="#dfeaf4" opacity="0.14"/><circle cx="250" cy="793" r="1.1" fill="#dfeaf4" opacity="0.16"/><circle cx="423" cy="100" r="1.1" fill="#dfeaf4" opacity="0.07"/><circle cx="596" cy="197" r="1.1" fill="#dfeaf4" opacity="0.09"/><circle cx="769" cy="294" r="1.1" fill="#dfeaf4" opacity="0.11"/><circle cx="942" cy="391" r="2.1" fill="#dfeaf4" opacity="0.13"/><circle cx="1115" cy="488" r="1.1" fill="#dfeaf4" opacity="0.15"/><circle cx="1288" cy="585" r="1.1" fill="#dfeaf4" opacity="0.06"/><circle cx="1461" cy="682" r="1.1" fill="#dfeaf4" opacity="0.08"/><circle cx="174" cy="779" r="1.1" fill="#dfeaf4" opacity="0.10"/><circle cx="347" cy="86" r="2.1" fill="#dfeaf4" opacity="0.12"/><circle cx="520" cy="183" r="1.1" fill="#dfeaf4" opacity="0.14"/><circle cx="693" cy="280" r="1.1" fill="#dfeaf4" opacity="0.16"/><path d="M1258 70V830" stroke="#e5eef6" stroke-opacity=".035" stroke-width="2"/><g><rect x="335" y="155" width="930" height="590" rx="42" fill="#02070d" stroke="#a5b7c7" stroke-opacity=".28" stroke-width="2"/><path d="M335 210H1265" stroke="#9eafbf" stroke-opacity=".18"/><rect x="390" y="230" width="96" height="82" rx="15" fill="#0c1925" stroke="#8fb4d5" stroke-opacity="0.62" stroke-width="2"/><rect x="512" y="230" width="96" height="82" rx="15" fill="#0c1925" stroke="#8fb4d5" stroke-opacity="0.62" stroke-width="2"/><rect x="634" y="230" width="96" height="82" rx="15" fill="#0c1925" stroke="#8fb4d5" stroke-opacity="0.62" stroke-width="2"/><rect x="647" y="245" width="52" height="7" rx="3.5" fill="#a7c5df" opacity=".8"/><rect x="756" y="230" width="96" height="82" rx="15" fill="#0c1925" stroke="#8fb4d5" stroke-opacity="0.62" stroke-width="2"/><rect x="878" y="230" width="96" height="82" rx="15" fill="#0c1925" stroke="#8fb4d5" stroke-opacity="0.62" stroke-width="2"/><rect x="1000" y="230" width="96" height="82" rx="15" fill="#0c1925" stroke="#8fb4d5" stroke-opacity="0.62" stroke-width="2"/><rect x="390" y="342" width="96" height="82" rx="15" fill="#0c1925" stroke="#8fb4d5" stroke-opacity="0.62" stroke-width="2"/><rect x="403" y="357" width="52" height="7" rx="3.5" fill="#a7c5df" opacity=".8"/><rect x="512" y="342" width="96" height="82" rx="15" fill="#0c1925" stroke="#8fb4d5" stroke-opacity="0.62" stroke-width="2"/><rect x="634" y="342" width="96" height="82" rx="15" fill="#0c1925" stroke="#8fb4d5" stroke-opacity="0.62" stroke-width="2"/><rect x="756" y="342" width="96" height="82" rx="15" fill="#0c1925" stroke="#8fb4d5" stroke-opacity="0.62" stroke-width="2"/><rect x="878" y="342" width="96" height="82" rx="15" fill="#04080d" stroke="#70808d" stroke-opacity="0.14" stroke-width="1"/><rect x="1000" y="342" width="96" height="82" rx="15" fill="#04080d" stroke="#70808d" stroke-opacity="0.14" stroke-width="1"/><rect x="390" y="454" width="96" height="82" rx="15" fill="#04080d" stroke="#70808d" stroke-opacity="0.14" stroke-width="1"/><rect x="512" y="454" width="96" height="82" rx="15" fill="#04080d" stroke="#70808d" stroke-opacity="0.14" stroke-width="1"/><rect x="634" y="454" width="96" height="82" rx="15" fill="#04080d" stroke="#70808d" stroke-opacity="0.14" stroke-width="1"/><rect x="756" y="454" width="96" height="82" rx="15" fill="#04080d" stroke="#70808d" stroke-opacity="0.14" stroke-width="1"/><rect x="878" y="454" width="96" height="82" rx="15" fill="#04080d" stroke="#70808d" stroke-opacity="0.14" stroke-width="1"/><rect x="1000" y="454" width="96" height="82" rx="15" fill="#04080d" stroke="#70808d" stroke-opacity="0.14" stroke-width="1"/><rect x="390" y="566" width="96" height="82" rx="15" fill="#04080d" stroke="#70808d" stroke-opacity="0.14" stroke-width="1"/><rect x="512" y="566" width="96" height="82" rx="15" fill="#04080d" stroke="#70808d" stroke-opacity="0.14" stroke-width="1"/><rect x="634" y="566" width="96" height="82" rx="15" fill="#04080d" stroke="#70808d" stroke-opacity="0.14" stroke-width="1"/><rect x="756" y="566" width="96" height="82" rx="15" fill="#04080d" stroke="#70808d" stroke-opacity="0.14" stroke-width="1"/><rect x="878" y="566" width="96" height="82" rx="15" fill="#04080d" stroke="#70808d" stroke-opacity="0.14" stroke-width="1"/><rect x="1000" y="566" width="96" height="82" rx="15" fill="#04080d" stroke="#70808d" stroke-opacity="0.14" stroke-width="1"/><path d="M455 270C620 105 930 125 1125 260S1240 565 1045 660" fill="none" stroke="url(#steel)" stroke-width="5" stroke-dasharray="440 1100" stroke-linecap="round"/><circle cx="720.0" cy="379.9" r="10" fill="#e3edf5" filter="url(#g)"/><rect x="1120" y="110" width="108" height="38" rx="19" fill="#0c1721" stroke="#9dbddd" stroke-opacity="0.42"/></g><path d="M92 808H286" stroke="#9fb2c2" stroke-opacity=".15"/><circle cx="76" cy="808" r="3" fill="#dce7f0" opacity=".5"/></svg>