<svg xmlns="http://www.w3.org/2000/svg" viewBox="0 0 1600 900"><defs><radialGradient id="bg" cx="50%" cy="46%" r="72%"><stop offset="0" stop-color="#07111b"/><stop offset=".56" stop-color="#02060b"/><stop offset="1" stop-color="#000"/></radialGradient><linearGradient id="steel" x1="0" y1="0" x2="1" y2="1"><stop stop-color="#f3f7fb"/><stop offset=".38" stop-color="#a8c3dd"/><stop offset="1" stop-color="#4f6d88"/></linearGradient><filter id="g"><feGaussianBlur stdDeviation="10" result="b"/><feMerge><feMergeNode in="b"/><feMergeNode in="SourceGraphic"/></feMerge></filter><filter id="s"><feGaussianBlur stdDeviation="34"/></filter></defs><rect width="1600" height="900" fill="url(#bg)"/><circle cx="305.0193942173406" cy="295.4820180260716" r="219.63229516890453" fill="#6e9cc5" opacity=".028" filter="url(#s)"/><path d="M90 0V900" stroke="#aac0d2" stroke-opacity=".035"/><path d="M210 0V900" stroke="#aac0d2" stroke-opacity=".035"/><path d="M330 0V900" stroke="#aac0d2" stroke-opacity=".035"/><path d="M450 0V900" stroke="#aac0d2" stroke-opacity=".035"/><path d="M570 0V900" stroke="#aac0d2" stroke-opacity=".035"/><path d="M690 0V900" stroke="#aac0d2" stroke-opacity=".035"/><path d="M810 0V900" stroke="#aac0d2" stroke-opacity=".035"/><path d="M930 0V900" stroke="#aac0d2" stroke-opacity=".035"/><path d="M1050 0V900" stroke="#aac0d2" stroke-opacity=".035"/><path d="M1170 0V900" stroke="#aac0d2" stroke-opacity=".035"/><path d="M1290 0V900" stroke="#aac0d2" stroke-opacity=".035"/><path d="M1410 0V900" stroke="#aac0d2" stroke-opacity=".035"/><path d="M1530 0V900" stroke="#aac0d2" stroke-opacity=".035"/><path d="M0 80H1600" stroke="#aac0d2" stroke-opacity=".03"/><path d="M0 200H1600" stroke="#aac0d2" stroke-opacity=".03"/><path d="M0 320H1600" stroke="#aac0d2" stroke-opacity=".03"/><path d="M0 440H1600" stroke="#aac0d2" stroke-opacity=".03"/><path d="M0 560H1600" stroke="#aac0d2" stroke-opacity=".03"/><path d="M0 680H1600" stroke="#aac0d2" stroke-opacity=".03"/><path d="M0 800H1600" stroke="#aac0d2" stroke-opacity=".03"/><circle cx="861" cy="508" r="2.1" fill="#dfeaf4" opacity="0.09"/><circle cx="1034" cy="605" r="1.1" fill="#dfeaf4" opacity="0.11"/><circle cx="1207" cy="702" r="1.1" fill="#dfeaf4" opacity="0.13"/><circle cx="1380" cy="799" r="1.1" fill="#dfeaf4" opacity="0.15"/><circle cx="93" cy="106" r="1.1" fill="#dfeaf4" opacity="0.06"/><circle cx="266" cy="203" r="2.1" fill="#dfeaf4" opacity="0.08"/><circle cx="439" cy="300" r="1.1" fill="#dfeaf4" opacity="0.10"/><circle cx="612" cy="397" r="1.1" fill="#dfeaf4" opacity="0.12"/><circle cx="785" cy="494" r="1.1" fill="#dfeaf4" opacity="0.14"/><circle cx="958" cy="591" r="1.1" fill="#dfeaf4" opacity="0.16"/><circle cx="1131" cy="688" r="2.1" fill="#dfeaf4" opacity="0.07"/><circle cx="1304" cy="785" r="1.1" fill="#dfeaf4" opacity="0.09"/><circle cx="1477" cy="92" r="1.1" fill="#dfeaf4" opacity="0.11"/><circle cx="190" cy="189" r="1.1" fill="#dfeaf4" opacity="0.13"/><circle cx="363" cy="286" r="1.1" fill="#dfeaf4" opacity="0.15"/><circle cx="536" cy="383" r="2.1" fill="#dfeaf4" opacity="0.06"/><circle cx="709" cy="480" r="1.1" fill="#dfeaf4" opacity="0.08"/><circle cx="882" cy="577" r="1.1" fill="#dfeaf4" opacity="0.10"/><path d="M289 70V830" stroke="#e5eef6" stroke-opacity=".035" stroke-width="2"/><g><rect x="270" y="115" width="1060" height="670" rx="60" fill="#02070d" stroke="#8799a8" stroke-opacity=".30" stroke-width="2"/><rect x="520" y="175" width="540" height="230" rx="28" fill="#06101a" stroke="#b8c8d5" stroke-opacity=".38"/><rect x="590" y="228" width="400" height="126" rx="14" fill="#0a1a27" stroke="#8fb6d8" stroke-opacity=".58"/><rect x="480" y="500" width="88" height="66" rx="14" fill="#06101a" stroke="#d0dce7" stroke-opacity="0.67" stroke-width="2"/><rect x="602" y="500" width="88" height="66" rx="14" fill="#06101a" stroke="#d0dce7" stroke-opacity="0.18" stroke-width="2"/><rect x="724" y="500" width="88" height="66" rx="14" fill="#06101a" stroke="#d0dce7" stroke-opacity="0.18" stroke-width="2"/><rect x="846" y="500" width="88" height="66" rx="14" fill="#06101a" stroke="#d0dce7" stroke-opacity="0.18" stroke-width="2"/><rect x="480" y="600" width="88" height="66" rx="14" fill="#06101a" stroke="#d0dce7" stroke-opacity="0.18" stroke-width="2"/><rect x="602" y="600" width="88" height="66" rx="14" fill="#06101a" stroke="#d0dce7" stroke-opacity="0.18" stroke-width="2"/><rect x="724" y="600" width="88" height="66" rx="14" fill="#06101a" stroke="#d0dce7" stroke-opacity="0.18" stroke-width="2"/><rect x="846" y="600" width="88" height="66" rx="14" fill="#06101a" stroke="#d0dce7" stroke-opacity="0.18" stroke-width="2"/><circle cx="1170" cy="290" r="72" fill="#07111b" stroke="#c5d2dd" stroke-opacity=".52" stroke-width="3"/><circle cx="1170" cy="290" r="18.8" fill="#9ec0de" opacity=".45" filter="url(#g)"/><path d="M345 210H650V650H1110" fill="none" stroke="#9bbddc" stroke-opacity="0.66" stroke-width="3"/><path d="M345 258H810V623H1128" fill="none" stroke="#9bbddc" stroke-opacity="0.66" stroke-width="3"/><path d="M345 306H650V596H1146" fill="none" stroke="#6a7986" stroke-opacity="0.1" stroke-width="1.4"/><path d="M345 354H810V569H1164" fill="none" stroke="#6a7986" stroke-opacity="0.1" stroke-width="1.4"/><path d="M345 402H650V542H1182" fill="none" stroke="#6a7986" stroke-opacity="0.1" stroke-width="1.4"/><path d="M345 450H810V515H1200" fill="none" stroke="#6a7986" stroke-opacity="0.1" stroke-width="1.4"/><path d="M345 498H650V488H1218" fill="none" stroke="#6a7986" stroke-opacity="0.1" stroke-width="1.4"/><path d="M345 546H810V461H1236" fill="none" stroke="#6a7986" stroke-opacity="0.1" stroke-width="1.4"/><path d="M345 594H650V434H1254" fill="none" stroke="#6a7986" stroke-opacity="0.1" stroke-width="1.4"/><path d="M345 642H810V407H1272" fill="none" stroke="#6a7986" stroke-opacity="0.1" stroke-width="1.4"/><rect x="710" y="420" width="180" height="78" rx="18" fill="#0d1a27" stroke="#d5e0e9" stroke-opacity=".40"/><circle cx="487.1" cy="374.2" r="9" fill="#e4eef6" filter="url(#g)"/></g><path d="M92 808H286" stroke="#9fb2c2" stroke-opacity=".15"/><circle cx="76" cy="808" r="3" fill="#dce7f0" opacity=".5"/></svg>