<svg xmlns="http://www.w3.org/2000/svg" viewBox="0 0 1600 900"><defs><radialGradient id="bg" cx="50%" cy="46%" r="72%"><stop offset="0" stop-color="#07111b"/><stop offset=".56" stop-color="#02060b"/><stop offset="1" stop-color="#000"/></radialGradient><linearGradient id="steel" x1="0" y1="0" x2="1" y2="1"><stop stop-color="#f3f7fb"/><stop offset=".38" stop-color="#a8c3dd"/><stop offset="1" stop-color="#4f6d88"/></linearGradient><filter id="g"><feGaussianBlur stdDeviation="10" result="b"/><feMerge><feMergeNode in="b"/><feMergeNode in="SourceGraphic"/></feMerge></filter><filter id="s"><feGaussianBlur stdDeviation="34"/></filter></defs><rect width="1600" height="900" fill="url(#bg)"/><circle cx="715.796555275541" cy="274.7281679800969" r="194.51056789832785" fill="#6e9cc5" opacity=".028" filter="url(#s)"/><path d="M90 0V900" stroke="#aac0d2" stroke-opacity=".035"/><path d="M210 0V900" stroke="#aac0d2" stroke-opacity=".035"/><path d="M330 0V900" stroke="#aac0d2" stroke-opacity=".035"/><path d="M450 0V900" stroke="#aac0d2" stroke-opacity=".035"/><path d="M570 0V900" stroke="#aac0d2" stroke-opacity=".035"/><path d="M690 0V900" stroke="#aac0d2" stroke-opacity=".035"/><path d="M810 0V900" stroke="#aac0d2" stroke-opacity=".035"/><path d="M930 0V900" stroke="#aac0d2" stroke-opacity=".035"/><path d="M1050 0V900" stroke="#aac0d2" stroke-opacity=".035"/><path d="M1170 0V900" stroke="#aac0d2" stroke-opacity=".035"/><path d="M1290 0V900" stroke="#aac0d2" stroke-opacity=".035"/><path d="M1410 0V900" stroke="#aac0d2" stroke-opacity=".035"/><path d="M1530 0V900" stroke="#aac0d2" stroke-opacity=".035"/><path d="M0 80H1600" stroke="#aac0d2" stroke-opacity=".03"/><path d="M0 200H1600" stroke="#aac0d2" stroke-opacity=".03"/><path d="M0 320H1600" stroke="#aac0d2" stroke-opacity=".03"/><path d="M0 440H1600" stroke="#aac0d2" stroke-opacity=".03"/><path d="M0 560H1600" stroke="#aac0d2" stroke-opacity=".03"/><path d="M0 680H1600" stroke="#aac0d2" stroke-opacity=".03"/><path d="M0 800H1600" stroke="#aac0d2" stroke-opacity=".03"/><circle cx="1113" cy="114" r="2.1" fill="#dfeaf4" opacity="0.12"/><circle cx="1286" cy="211" r="1.1" fill="#dfeaf4" opacity="0.14"/><circle cx="1459" cy="308" r="1.1" fill="#dfeaf4" opacity="0.16"/><circle cx="172" cy="405" r="1.1" fill="#dfeaf4" opacity="0.07"/><circle cx="345" cy="502" r="1.1" fill="#dfeaf4" opacity="0.09"/><circle cx="518" cy="599" r="2.1" fill="#dfeaf4" opacity="0.11"/><circle cx="691" cy="696" r="1.1" fill="#dfeaf4" opacity="0.13"/><circle cx="864" cy="793" r="1.1" fill="#dfeaf4" opacity="0.15"/><circle cx="1037" cy="100" r="1.1" fill="#dfeaf4" opacity="0.06"/><circle cx="1210" cy="197" r="1.1" fill="#dfeaf4" opacity="0.08"/><circle cx="1383" cy="294" r="2.1" fill="#dfeaf4" opacity="0.10"/><circle cx="96" cy="391" r="1.1" fill="#dfeaf4" opacity="0.12"/><circle cx="269" cy="488" r="1.1" fill="#dfeaf4" opacity="0.14"/><circle cx="442" cy="585" r="1.1" fill="#dfeaf4" opacity="0.16"/><circle cx="615" cy="682" r="1.1" fill="#dfeaf4" opacity="0.07"/><circle cx="788" cy="779" r="2.1" fill="#dfeaf4" opacity="0.09"/><circle cx="961" cy="86" r="1.1" fill="#dfeaf4" opacity="0.11"/><circle cx="1134" cy="183" r="1.1" fill="#dfeaf4" opacity="0.13"/><path d="M757 70V830" stroke="#e5eef6" stroke-opacity=".035" stroke-width="2"/><g><path d="M220 110C390 175 345 300 510 345S700 275 820 395 875 635 1050 680 1245 610 1390 790" fill="none" stroke="#65737e" stroke-opacity=".18" stroke-width="86.0" stroke-linecap="round"/><path d="M220 110C390 175 345 300 510 345S700 275 820 395 875 635 1050 680 1245 610 1390 790" fill="none" stroke="url(#steel)" stroke-opacity=".80" stroke-width="5" stroke-dasharray="280 1400" stroke-linecap="round"/><path d="M430 282l20 36h-40z" fill="#9ab4ca" opacity="0.64"/><path d="M555 397l20 36h-40z" fill="#52606a" opacity="0.12"/><path d="M680 512l20 36h-40z" fill="#52606a" opacity="0.12"/><path d="M805 282l20 36h-40z" fill="#52606a" opacity="0.12"/><path d="M930 397l20 36h-40z" fill="#52606a" opacity="0.12"/><path d="M1055 512l20 36h-40z" fill="#52606a" opacity="0.12"/><path d="M1180 282l20 36h-40z" fill="#52606a" opacity="0.12"/><path d="M1305 397l20 36h-40z" fill="#52606a" opacity="0.12"/><circle cx="408.6" cy="323.4" r="12" fill="#e3edf5" filter="url(#g)"/><g opacity="0.24"><path d="M150 760L285 620 410 690 550 550 690 645 835 510 1020 610 1180 495 1470 675V900H150Z" fill="#06101a" stroke="#728494" stroke-opacity=".22"/><path d="M230 790L405 705 570 778 740 665 900 735 1075 648 1280 730 1430 632" fill="none" stroke="#8da5ba" stroke-opacity=".18"/></g><rect x="1320" y="720" width="120" height="54" rx="13" fill="#08131d" stroke="#b9cbd9" stroke-opacity="0.20"/></g><path d="M92 808H286" stroke="#9fb2c2" stroke-opacity=".15"/><circle cx="76" cy="808" r="3" fill="#dce7f0" opacity=".5"/></svg>