<svg xmlns="http://www.w3.org/2000/svg" viewBox="0 0 1600 900"><defs><radialGradient id="bg" cx="50%" cy="46%" r="72%"><stop offset="0" stop-color="#07111b"/><stop offset=".56" stop-color="#02060b"/><stop offset="1" stop-color="#000"/></radialGradient><linearGradient id="steel" x1="0" y1="0" x2="1" y2="1"><stop stop-color="#f3f7fb"/><stop offset=".38" stop-color="#a8c3dd"/><stop offset="1" stop-color="#4f6d88"/></linearGradient><filter id="g"><feGaussianBlur stdDeviation="10" result="b"/><feMerge><feMergeNode in="b"/><feMergeNode in="SourceGraphic"/></feMerge></filter><filter id="s"><feGaussianBlur stdDeviation="34"/></filter></defs><rect width="1600" height="900" fill="url(#bg)"/><circle cx="567.4109428788963" cy="396.76740806117624" r="253.63818038519497" fill="#6e9cc5" opacity=".028" filter="url(#s)"/><path d="M80 0V900" stroke="#aac0d2" stroke-opacity=".035"/><path d="M200 0V900" stroke="#aac0d2" stroke-opacity=".035"/><path d="M320 0V900" stroke="#aac0d2" stroke-opacity=".035"/><path d="M440 0V900" stroke="#aac0d2" stroke-opacity=".035"/><path d="M560 0V900" stroke="#aac0d2" stroke-opacity=".035"/><path d="M680 0V900" stroke="#aac0d2" stroke-opacity=".035"/><path d="M800 0V900" stroke="#aac0d2" stroke-opacity=".035"/><path d="M920 0V900" stroke="#aac0d2" stroke-opacity=".035"/><path d="M1040 0V900" stroke="#aac0d2" stroke-opacity=".035"/><path d="M1160 0V900" stroke="#aac0d2" stroke-opacity=".035"/><path d="M1280 0V900" stroke="#aac0d2" stroke-opacity=".035"/><path d="M1400 0V900" stroke="#aac0d2" stroke-opacity=".035"/><path d="M1520 0V900" stroke="#aac0d2" stroke-opacity=".035"/><path d="M0 70H1600" stroke="#aac0d2" stroke-opacity=".03"/><path d="M0 190H1600" stroke="#aac0d2" stroke-opacity=".03"/><path d="M0 310H1600" stroke="#aac0d2" stroke-opacity=".03"/><path d="M0 430H1600" stroke="#aac0d2" stroke-opacity=".03"/><path d="M0 550H1600" stroke="#aac0d2" stroke-opacity=".03"/><path d="M0 670H1600" stroke="#aac0d2" stroke-opacity=".03"/><path d="M0 790H1600" stroke="#aac0d2" stroke-opacity=".03"/><circle cx="574" cy="57" r="2.1" fill="#dfeaf4" opacity="0.12"/><circle cx="747" cy="154" r="1.1" fill="#dfeaf4" opacity="0.14"/><circle cx="920" cy="251" r="1.1" fill="#dfeaf4" opacity="0.16"/><circle cx="1093" cy="348" r="1.1" fill="#dfeaf4" opacity="0.07"/><circle cx="1266" cy="445" r="1.1" fill="#dfeaf4" opacity="0.09"/><circle cx="1439" cy="542" r="2.1" fill="#dfeaf4" opacity="0.11"/><circle cx="152" cy="639" r="1.1" fill="#dfeaf4" opacity="0.13"/><circle cx="325" cy="736" r="1.1" fill="#dfeaf4" opacity="0.15"/><circle cx="498" cy="833" r="1.1" fill="#dfeaf4" opacity="0.06"/><circle cx="671" cy="140" r="1.1" fill="#dfeaf4" opacity="0.08"/><circle cx="844" cy="237" r="2.1" fill="#dfeaf4" opacity="0.10"/><circle cx="1017" cy="334" r="1.1" fill="#dfeaf4" opacity="0.12"/><circle cx="1190" cy="431" r="1.1" fill="#dfeaf4" opacity="0.14"/><circle cx="1363" cy="528" r="1.1" fill="#dfeaf4" opacity="0.16"/><circle cx="76" cy="625" r="1.1" fill="#dfeaf4" opacity="0.07"/><circle cx="249" cy="722" r="2.1" fill="#dfeaf4" opacity="0.09"/><circle cx="422" cy="819" r="1.1" fill="#dfeaf4" opacity="0.11"/><circle cx="595" cy="126" r="1.1" fill="#dfeaf4" opacity="0.13"/><path d="M1076 70V830" stroke="#e5eef6" stroke-opacity=".035" stroke-width="2"/><g><rect x="335" y="155" width="930" height="590" rx="42" fill="#02070d" stroke="#a5b7c7" stroke-opacity=".28" stroke-width="2"/><path d="M335 210H1265" stroke="#9eafbf" stroke-opacity=".18"/><rect x="390" y="230" width="96" height="82" rx="15" fill="#0c1925" stroke="#8fb4d5" stroke-opacity="0.62" stroke-width="2"/><rect x="403" y="245" width="34" height="7" rx="3.5" fill="#a7c5df" opacity=".8"/><rect x="512" y="230" width="96" height="82" rx="15" fill="#04080d" stroke="#70808d" stroke-opacity="0.14" stroke-width="1"/><rect x="634" y="230" width="96" height="82" rx="15" fill="#04080d" stroke="#70808d" stroke-opacity="0.14" stroke-width="1"/><rect x="756" y="230" width="96" height="82" rx="15" fill="#04080d" stroke="#70808d" stroke-opacity="0.14" stroke-width="1"/><rect x="878" y="230" width="96" height="82" rx="15" fill="#04080d" stroke="#70808d" stroke-opacity="0.14" stroke-width="1"/><rect x="1000" y="230" width="96" height="82" rx="15" fill="#04080d" stroke="#70808d" stroke-opacity="0.14" stroke-width="1"/><rect x="390" y="342" width="96" height="82" rx="15" fill="#04080d" stroke="#70808d" stroke-opacity="0.14" stroke-width="1"/><rect x="512" y="342" width="96" height="82" rx="15" fill="#04080d" stroke="#70808d" stroke-opacity="0.14" stroke-width="1"/><rect x="634" y="342" width="96" height="82" rx="15" fill="#04080d" stroke="#70808d" stroke-opacity="0.14" stroke-width="1"/><rect x="756" y="342" width="96" height="82" rx="15" fill="#04080d" stroke="#70808d" stroke-opacity="0.14" stroke-width="1"/><rect x="878" y="342" width="96" height="82" rx="15" fill="#04080d" stroke="#70808d" stroke-opacity="0.14" stroke-width="1"/><rect x="1000" y="342" width="96" height="82" rx="15" fill="#04080d" stroke="#70808d" stroke-opacity="0.14" stroke-width="1"/><rect x="390" y="454" width="96" height="82" rx="15" fill="#04080d" stroke="#70808d" stroke-opacity="0.14" stroke-width="1"/><rect x="512" y="454" width="96" height="82" rx="15" fill="#04080d" stroke="#70808d" stroke-opacity="0.14" stroke-width="1"/><rect x="634" y="454" width="96" height="82" rx="15" fill="#04080d" stroke="#70808d" stroke-opacity="0.14" stroke-width="1"/><rect x="756" y="454" width="96" height="82" rx="15" fill="#04080d" stroke="#70808d" stroke-opacity="0.14" stroke-width="1"/><rect x="878" y="454" width="96" height="82" rx="15" fill="#04080d" stroke="#70808d" stroke-opacity="0.14" stroke-width="1"/><rect x="1000" y="454" width="96" height="82" rx="15" fill="#04080d" stroke="#70808d" stroke-opacity="0.14" stroke-width="1"/><rect x="390" y="566" width="96" height="82" rx="15" fill="#04080d" stroke="#70808d" stroke-opacity="0.14" stroke-width="1"/><rect x="512" y="566" width="96" height="82" rx="15" fill="#04080d" stroke="#70808d" stroke-opacity="0.14" stroke-width="1"/><rect x="634" y="566" width="96" height="82" rx="15" fill="#04080d" stroke="#70808d" stroke-opacity="0.14" stroke-width="1"/><rect x="756" y="566" width="96" height="82" rx="15" fill="#04080d" stroke="#70808d" stroke-opacity="0.14" stroke-width="1"/><rect x="878" y="566" width="96" height="82" rx="15" fill="#04080d" stroke="#70808d" stroke-opacity="0.14" stroke-width="1"/><rect x="1000" y="566" width="96" height="82" rx="15" fill="#04080d" stroke="#70808d" stroke-opacity="0.14" stroke-width="1"/><path d="M455 270C620 105 930 125 1125 260S1240 565 1045 660" fill="none" stroke="url(#steel)" stroke-width="5" stroke-dasharray="80 1100" stroke-linecap="round"/><circle cx="460.0" cy="280.0" r="10" fill="#e3edf5" filter="url(#g)"/><rect x="1120" y="110" width="108" height="38" rx="19" fill="#0c1721" stroke="#9dbddd" stroke-opacity="0.20"/></g><path d="M92 808H286" stroke="#9fb2c2" stroke-opacity=".15"/><circle cx="76" cy="808" r="3" fill="#dce7f0" opacity=".5"/></svg>