<svg xmlns="http://www.w3.org/2000/svg" viewBox="0 0 1600 900"><defs>
<radialGradient id="bg" cx="50%" cy="46%" r="72%"><stop offset="0" stop-color="#07111b"/><stop offset=".56" stop-color="#02060b"/><stop offset="1" stop-color="#000"/></radialGradient>
<linearGradient id="steel" x1="0" y1="0" x2="1" y2="1"><stop stop-color="#f3f7fb"/><stop offset=".38" stop-color="#a8c3dd"/><stop offset="1" stop-color="#4f6d88"/></linearGradient>
<linearGradient id="warm" x1="0" y1="0" x2="1" y2="1"><stop stop-color="#d9c9bd"/><stop offset="1" stop-color="#7c6456"/></linearGradient>
<filter id="g"><feGaussianBlur stdDeviation="10" result="b"/><feMerge><feMergeNode in="b"/><feMergeNode in="SourceGraphic"/></feMerge></filter>
<filter id="s"><feGaussianBlur stdDeviation="34"/></filter>
</defs><rect width="1600" height="900" fill="url(#bg)"/><circle cx="759.9165177032834" cy="385.8410221792668" r="252.29434604106007" fill="#6e9cc5" opacity=".028" filter="url(#s)"/><path d="M90 0V900" stroke="#aac0d2" stroke-opacity=".035"/><path d="M210 0V900" stroke="#aac0d2" stroke-opacity=".035"/><path d="M330 0V900" stroke="#aac0d2" stroke-opacity=".035"/><path d="M450 0V900" stroke="#aac0d2" stroke-opacity=".035"/><path d="M570 0V900" stroke="#aac0d2" stroke-opacity=".035"/><path d="M690 0V900" stroke="#aac0d2" stroke-opacity=".035"/><path d="M810 0V900" stroke="#aac0d2" stroke-opacity=".035"/><path d="M930 0V900" stroke="#aac0d2" stroke-opacity=".035"/><path d="M1050 0V900" stroke="#aac0d2" stroke-opacity=".035"/><path d="M1170 0V900" stroke="#aac0d2" stroke-opacity=".035"/><path d="M1290 0V900" stroke="#aac0d2" stroke-opacity=".035"/><path d="M1410 0V900" stroke="#aac0d2" stroke-opacity=".035"/><path d="M1530 0V900" stroke="#aac0d2" stroke-opacity=".035"/><path d="M0 80H1600" stroke="#aac0d2" stroke-opacity=".03"/><path d="M0 200H1600" stroke="#aac0d2" stroke-opacity=".03"/><path d="M0 320H1600" stroke="#aac0d2" stroke-opacity=".03"/><path d="M0 440H1600" stroke="#aac0d2" stroke-opacity=".03"/><path d="M0 560H1600" stroke="#aac0d2" stroke-opacity=".03"/><path d="M0 680H1600" stroke="#aac0d2" stroke-opacity=".03"/><path d="M0 800H1600" stroke="#aac0d2" stroke-opacity=".03"/><circle cx="189" cy="242" r="2.1" fill="#dfeaf4" opacity="0.12"/><circle cx="362" cy="339" r="1.1" fill="#dfeaf4" opacity="0.14"/><circle cx="535" cy="436" r="1.1" fill="#dfeaf4" opacity="0.16"/><circle cx="708" cy="533" r="1.1" fill="#dfeaf4" opacity="0.07"/><circle cx="881" cy="630" r="1.1" fill="#dfeaf4" opacity="0.09"/><circle cx="1054" cy="727" r="2.1" fill="#dfeaf4" opacity="0.11"/><circle cx="1227" cy="824" r="1.1" fill="#dfeaf4" opacity="0.13"/><circle cx="1400" cy="131" r="1.1" fill="#dfeaf4" opacity="0.15"/><circle cx="113" cy="228" r="1.1" fill="#dfeaf4" opacity="0.06"/><circle cx="286" cy="325" r="1.1" fill="#dfeaf4" opacity="0.08"/><circle cx="459" cy="422" r="2.1" fill="#dfeaf4" opacity="0.10"/><circle cx="632" cy="519" r="1.1" fill="#dfeaf4" opacity="0.12"/><circle cx="805" cy="616" r="1.1" fill="#dfeaf4" opacity="0.14"/><circle cx="978" cy="713" r="1.1" fill="#dfeaf4" opacity="0.16"/><circle cx="1151" cy="810" r="1.1" fill="#dfeaf4" opacity="0.07"/><circle cx="1324" cy="117" r="2.1" fill="#dfeaf4" opacity="0.09"/><circle cx="1497" cy="214" r="1.1" fill="#dfeaf4" opacity="0.11"/><circle cx="210" cy="311" r="1.1" fill="#dfeaf4" opacity="0.13"/><path d="M361 70V830" stroke="#e5eef6" stroke-opacity=".035" stroke-width="2"/><g>
 <circle cx="800" cy="450" r="278" fill="none" stroke="#b5c7d6" stroke-opacity=".08"/>
 <circle cx="800" cy="450" r="220" fill="none" stroke="#b5c7d6" stroke-opacity=".11"/>
 <circle cx="800" cy="450" r="174" fill="none" stroke="url(#steel)" stroke-opacity=".72" stroke-width="5" pathLength="100" stroke-dasharray="51.4 100" transform="rotate(50.85714285714286 800 450)"/>
 <path d="M520 450H655M945 450H1082" stroke="#88aed0" stroke-opacity=".75" stroke-width="4" stroke-linecap="round"/>
 <rect x="655" y="300" width="290" height="300" rx="52" fill="#06101a" stroke="#a9bdcf" stroke-opacity=".5" stroke-width="2"/>
 <path d="M730 420V382c0-96 140-96 140 0v38" fill="none" stroke="#d6e2ec" stroke-width="10" stroke-linecap="round"/>
 <rect x="702" y="418" width="196" height="132" rx="22" fill="#0a1722" stroke="#e4edf4" stroke-opacity=".55"/>
 <circle cx="800" cy="472" r="15.991944532330518" fill="#c7dced" filter="url(#g)"/><path d="M800 488V520" stroke="#c7dced" stroke-width="7" stroke-linecap="round"/>
 <rect x="1037.4" y="285" width="18" height="330" rx="9" fill="#9db8d1" opacity="0.45"/>
 <circle cx="742" cy="450" r="9" fill="#e2edf5" filter="url(#g)"/>
 <path d="M800 248V170M800 652V730" stroke="#738799" stroke-opacity="0.24" stroke-width="2"/>
 </g><path d="M92 808H286" stroke="#9fb2c2" stroke-opacity=".15"/><circle cx="76" cy="808" r="3" fill="#dce7f0" opacity=".5"/></svg>