<svg xmlns="http://www.w3.org/2000/svg" viewBox="0 0 1600 900"><defs>
<radialGradient id="bg" cx="50%" cy="46%" r="72%"><stop offset="0" stop-color="#07111b"/><stop offset=".56" stop-color="#02060b"/><stop offset="1" stop-color="#000"/></radialGradient>
<linearGradient id="steel" x1="0" y1="0" x2="1" y2="1"><stop stop-color="#f3f7fb"/><stop offset=".38" stop-color="#a8c3dd"/><stop offset="1" stop-color="#4f6d88"/></linearGradient>
<linearGradient id="warm" x1="0" y1="0" x2="1" y2="1"><stop stop-color="#d9c9bd"/><stop offset="1" stop-color="#7c6456"/></linearGradient>
<filter id="g"><feGaussianBlur stdDeviation="10" result="b"/><feMerge><feMergeNode in="b"/><feMergeNode in="SourceGraphic"/></feMerge></filter>
<filter id="s"><feGaussianBlur stdDeviation="34"/></filter>
</defs><rect width="1600" height="900" fill="url(#bg)"/><circle cx="582.6286266812996" cy="234.00150033331036" r="209.85972368117507" fill="#6e9cc5" opacity=".028" filter="url(#s)"/><path d="M94 0V900" stroke="#aac0d2" stroke-opacity=".035"/><path d="M214 0V900" stroke="#aac0d2" stroke-opacity=".035"/><path d="M334 0V900" stroke="#aac0d2" stroke-opacity=".035"/><path d="M454 0V900" stroke="#aac0d2" stroke-opacity=".035"/><path d="M574 0V900" stroke="#aac0d2" stroke-opacity=".035"/><path d="M694 0V900" stroke="#aac0d2" stroke-opacity=".035"/><path d="M814 0V900" stroke="#aac0d2" stroke-opacity=".035"/><path d="M934 0V900" stroke="#aac0d2" stroke-opacity=".035"/><path d="M1054 0V900" stroke="#aac0d2" stroke-opacity=".035"/><path d="M1174 0V900" stroke="#aac0d2" stroke-opacity=".035"/><path d="M1294 0V900" stroke="#aac0d2" stroke-opacity=".035"/><path d="M1414 0V900" stroke="#aac0d2" stroke-opacity=".035"/><path d="M1534 0V900" stroke="#aac0d2" stroke-opacity=".035"/><path d="M0 84H1600" stroke="#aac0d2" stroke-opacity=".03"/><path d="M0 204H1600" stroke="#aac0d2" stroke-opacity=".03"/><path d="M0 324H1600" stroke="#aac0d2" stroke-opacity=".03"/><path d="M0 444H1600" stroke="#aac0d2" stroke-opacity=".03"/><path d="M0 564H1600" stroke="#aac0d2" stroke-opacity=".03"/><path d="M0 684H1600" stroke="#aac0d2" stroke-opacity=".03"/><path d="M0 804H1600" stroke="#aac0d2" stroke-opacity=".03"/><circle cx="287" cy="396" r="2.1" fill="#dfeaf4" opacity="0.15"/><circle cx="460" cy="493" r="1.1" fill="#dfeaf4" opacity="0.06"/><circle cx="633" cy="590" r="1.1" fill="#dfeaf4" opacity="0.08"/><circle cx="806" cy="687" r="1.1" fill="#dfeaf4" opacity="0.10"/><circle cx="979" cy="784" r="1.1" fill="#dfeaf4" opacity="0.12"/><circle cx="1152" cy="91" r="2.1" fill="#dfeaf4" opacity="0.14"/><circle cx="1325" cy="188" r="1.1" fill="#dfeaf4" opacity="0.16"/><circle cx="1498" cy="285" r="1.1" fill="#dfeaf4" opacity="0.07"/><circle cx="211" cy="382" r="1.1" fill="#dfeaf4" opacity="0.09"/><circle cx="384" cy="479" r="1.1" fill="#dfeaf4" opacity="0.11"/><circle cx="557" cy="576" r="2.1" fill="#dfeaf4" opacity="0.13"/><circle cx="730" cy="673" r="1.1" fill="#dfeaf4" opacity="0.15"/><circle cx="903" cy="770" r="1.1" fill="#dfeaf4" opacity="0.06"/><circle cx="1076" cy="77" r="1.1" fill="#dfeaf4" opacity="0.08"/><circle cx="1249" cy="174" r="1.1" fill="#dfeaf4" opacity="0.10"/><circle cx="1422" cy="271" r="2.1" fill="#dfeaf4" opacity="0.12"/><circle cx="135" cy="368" r="1.1" fill="#dfeaf4" opacity="0.14"/><circle cx="308" cy="465" r="1.1" fill="#dfeaf4" opacity="0.16"/><path d="M543 70V830" stroke="#e5eef6" stroke-opacity=".035" stroke-width="2"/><g>
 <circle cx="800" cy="450" r="278" fill="none" stroke="#b5c7d6" stroke-opacity=".08"/>
 <circle cx="800" cy="450" r="220" fill="none" stroke="#b5c7d6" stroke-opacity=".11"/>
 <circle cx="800" cy="450" r="174" fill="none" stroke="url(#steel)" stroke-opacity=".72" stroke-width="5" pathLength="100" stroke-dasharray="81.4 100" transform="rotate(166.85714285714283 800 450)"/>
 <path d="M520 450H655M945 450H1082" stroke="#88aed0" stroke-opacity=".75" stroke-width="4" stroke-linecap="round"/>
 <rect x="655" y="300" width="290" height="300" rx="52" fill="#06101a" stroke="#a9bdcf" stroke-opacity=".5" stroke-width="2"/>
 <path d="M730 420V382c0-96 140-96 140 0v38" fill="none" stroke="#d6e2ec" stroke-width="10" stroke-linecap="round"/>
 <rect x="702" y="418" width="196" height="132" rx="22" fill="#0a1722" stroke="#e4edf4" stroke-opacity=".55"/>
 <circle cx="800" cy="472" r="10.810998592650742" fill="#c7dced" filter="url(#g)"/><path d="M800 488V520" stroke="#c7dced" stroke-width="7" stroke-linecap="round"/>
 <rect x="969.4" y="285" width="18" height="330" rx="9" fill="#9db8d1" opacity="0.67"/>
 <circle cx="910" cy="450" r="9" fill="#e2edf5" filter="url(#g)"/>
 <path d="M800 248V170M800 652V730" stroke="#738799" stroke-opacity="0.35" stroke-width="2"/>
 </g><path d="M92 808H286" stroke="#9fb2c2" stroke-opacity=".15"/><circle cx="76" cy="808" r="3" fill="#dce7f0" opacity=".5"/></svg>