<svg xmlns="http://www.w3.org/2000/svg" viewBox="0 0 1600 900"><defs><radialGradient id="bg" cx="50%" cy="46%" r="72%"><stop offset="0" stop-color="#07111b"/><stop offset=".56" stop-color="#02060b"/><stop offset="1" stop-color="#000"/></radialGradient><linearGradient id="steel" x1="0" y1="0" x2="1" y2="1"><stop stop-color="#f3f7fb"/><stop offset=".38" stop-color="#a8c3dd"/><stop offset="1" stop-color="#4f6d88"/></linearGradient><filter id="g"><feGaussianBlur stdDeviation="10" result="b"/><feMerge><feMergeNode in="b"/><feMergeNode in="SourceGraphic"/></feMerge></filter><filter id="s"><feGaussianBlur stdDeviation="34"/></filter></defs><rect width="1600" height="900" fill="url(#bg)"/><circle cx="402.84982020764915" cy="489.5322129969229" r="244.7918367731028" fill="#6e9cc5" opacity=".028" filter="url(#s)"/><path d="M98 0V900" stroke="#aac0d2" stroke-opacity=".035"/><path d="M218 0V900" stroke="#aac0d2" stroke-opacity=".035"/><path d="M338 0V900" stroke="#aac0d2" stroke-opacity=".035"/><path d="M458 0V900" stroke="#aac0d2" stroke-opacity=".035"/><path d="M578 0V900" stroke="#aac0d2" stroke-opacity=".035"/><path d="M698 0V900" stroke="#aac0d2" stroke-opacity=".035"/><path d="M818 0V900" stroke="#aac0d2" stroke-opacity=".035"/><path d="M938 0V900" stroke="#aac0d2" stroke-opacity=".035"/><path d="M1058 0V900" stroke="#aac0d2" stroke-opacity=".035"/><path d="M1178 0V900" stroke="#aac0d2" stroke-opacity=".035"/><path d="M1298 0V900" stroke="#aac0d2" stroke-opacity=".035"/><path d="M1418 0V900" stroke="#aac0d2" stroke-opacity=".035"/><path d="M1538 0V900" stroke="#aac0d2" stroke-opacity=".035"/><path d="M0 88H1600" stroke="#aac0d2" stroke-opacity=".03"/><path d="M0 208H1600" stroke="#aac0d2" stroke-opacity=".03"/><path d="M0 328H1600" stroke="#aac0d2" stroke-opacity=".03"/><path d="M0 448H1600" stroke="#aac0d2" stroke-opacity=".03"/><path d="M0 568H1600" stroke="#aac0d2" stroke-opacity=".03"/><path d="M0 688H1600" stroke="#aac0d2" stroke-opacity=".03"/><path d="M0 808H1600" stroke="#aac0d2" stroke-opacity=".03"/><circle cx="1309" cy="422" r="2.1" fill="#dfeaf4" opacity="0.07"/><circle cx="1482" cy="519" r="1.1" fill="#dfeaf4" opacity="0.09"/><circle cx="195" cy="616" r="1.1" fill="#dfeaf4" opacity="0.11"/><circle cx="368" cy="713" r="1.1" fill="#dfeaf4" opacity="0.13"/><circle cx="541" cy="810" r="1.1" fill="#dfeaf4" opacity="0.15"/><circle cx="714" cy="117" r="2.1" fill="#dfeaf4" opacity="0.06"/><circle cx="887" cy="214" r="1.1" fill="#dfeaf4" opacity="0.08"/><circle cx="1060" cy="311" r="1.1" fill="#dfeaf4" opacity="0.10"/><circle cx="1233" cy="408" r="1.1" fill="#dfeaf4" opacity="0.12"/><circle cx="1406" cy="505" r="1.1" fill="#dfeaf4" opacity="0.14"/><circle cx="119" cy="602" r="2.1" fill="#dfeaf4" opacity="0.16"/><circle cx="292" cy="699" r="1.1" fill="#dfeaf4" opacity="0.07"/><circle cx="465" cy="796" r="1.1" fill="#dfeaf4" opacity="0.09"/><circle cx="638" cy="103" r="1.1" fill="#dfeaf4" opacity="0.11"/><circle cx="811" cy="200" r="1.1" fill="#dfeaf4" opacity="0.13"/><circle cx="984" cy="297" r="2.1" fill="#dfeaf4" opacity="0.15"/><circle cx="1157" cy="394" r="1.1" fill="#dfeaf4" opacity="0.06"/><circle cx="1330" cy="491" r="1.1" fill="#dfeaf4" opacity="0.08"/><path d="M1121 70V830" stroke="#e5eef6" stroke-opacity=".035" stroke-width="2"/><g><path d="M220 110C390 175 345 300 510 345S700 275 820 395 875 635 1050 680 1245 610 1390 790" fill="none" stroke="#65737e" stroke-opacity=".18" stroke-width="52.4" stroke-linecap="round"/><path d="M220 110C390 175 345 300 510 345S700 275 820 395 875 635 1050 680 1245 610 1390 790" fill="none" stroke="url(#steel)" stroke-opacity=".80" stroke-width="5" stroke-dasharray="1176 1400" stroke-linecap="round"/><path d="M430 282l20 36h-40z" fill="#9ab4ca" opacity="0.64"/><path d="M555 397l20 36h-40z" fill="#9ab4ca" opacity="0.64"/><path d="M680 512l20 36h-40z" fill="#9ab4ca" opacity="0.64"/><path d="M805 282l20 36h-40z" fill="#9ab4ca" opacity="0.64"/><path d="M930 397l20 36h-40z" fill="#9ab4ca" opacity="0.64"/><path d="M1055 512l20 36h-40z" fill="#9ab4ca" opacity="0.64"/><path d="M1180 282l20 36h-40z" fill="#9ab4ca" opacity="0.64"/><path d="M1305 397l20 36h-40z" fill="#52606a" opacity="0.12"/><circle cx="1296.6" cy="609.9" r="12" fill="#e3edf5" filter="url(#g)"/><g opacity="0.46"><path d="M150 760L285 620 410 690 550 550 690 645 835 510 1020 610 1180 495 1470 675V900H150Z" fill="#06101a" stroke="#728494" stroke-opacity=".22"/><path d="M230 790L405 705 570 778 740 665 900 735 1075 648 1280 730 1430 632" fill="none" stroke="#8da5ba" stroke-opacity=".18"/></g><rect x="1320" y="720" width="120" height="54" rx="13" fill="#08131d" stroke="#b9cbd9" stroke-opacity="0.64"/></g><path d="M92 808H286" stroke="#9fb2c2" stroke-opacity=".15"/><circle cx="76" cy="808" r="3" fill="#dce7f0" opacity=".5"/></svg>