<svg xmlns="http://www.w3.org/2000/svg" viewBox="0 0 1600 900"><defs><radialGradient id="bg" cx="50%" cy="46%" r="72%"><stop offset="0" stop-color="#07111b"/><stop offset=".56" stop-color="#02060b"/><stop offset="1" stop-color="#000"/></radialGradient><linearGradient id="steel" x1="0" y1="0" x2="1" y2="1"><stop stop-color="#f3f7fb"/><stop offset=".38" stop-color="#a8c3dd"/><stop offset="1" stop-color="#4f6d88"/></linearGradient><filter id="g"><feGaussianBlur stdDeviation="10" result="b"/><feMerge><feMergeNode in="b"/><feMergeNode in="SourceGraphic"/></feMerge></filter><filter id="s"><feGaussianBlur stdDeviation="34"/></filter></defs><rect width="1600" height="900" fill="url(#bg)"/><circle cx="759.7218770667919" cy="342.1250499430737" r="186.05432559318058" fill="#6e9cc5" opacity=".028" filter="url(#s)"/><path d="M102 0V900" stroke="#aac0d2" stroke-opacity=".035"/><path d="M222 0V900" stroke="#aac0d2" stroke-opacity=".035"/><path d="M342 0V900" stroke="#aac0d2" stroke-opacity=".035"/><path d="M462 0V900" stroke="#aac0d2" stroke-opacity=".035"/><path d="M582 0V900" stroke="#aac0d2" stroke-opacity=".035"/><path d="M702 0V900" stroke="#aac0d2" stroke-opacity=".035"/><path d="M822 0V900" stroke="#aac0d2" stroke-opacity=".035"/><path d="M942 0V900" stroke="#aac0d2" stroke-opacity=".035"/><path d="M1062 0V900" stroke="#aac0d2" stroke-opacity=".035"/><path d="M1182 0V900" stroke="#aac0d2" stroke-opacity=".035"/><path d="M1302 0V900" stroke="#aac0d2" stroke-opacity=".035"/><path d="M1422 0V900" stroke="#aac0d2" stroke-opacity=".035"/><path d="M1542 0V900" stroke="#aac0d2" stroke-opacity=".035"/><path d="M0 92H1600" stroke="#aac0d2" stroke-opacity=".03"/><path d="M0 212H1600" stroke="#aac0d2" stroke-opacity=".03"/><path d="M0 332H1600" stroke="#aac0d2" stroke-opacity=".03"/><path d="M0 452H1600" stroke="#aac0d2" stroke-opacity=".03"/><path d="M0 572H1600" stroke="#aac0d2" stroke-opacity=".03"/><path d="M0 692H1600" stroke="#aac0d2" stroke-opacity=".03"/><path d="M0 812H1600" stroke="#aac0d2" stroke-opacity=".03"/><circle cx="1155" cy="180" r="2.1" fill="#dfeaf4" opacity="0.07"/><circle cx="1328" cy="277" r="1.1" fill="#dfeaf4" opacity="0.09"/><circle cx="1501" cy="374" r="1.1" fill="#dfeaf4" opacity="0.11"/><circle cx="214" cy="471" r="1.1" fill="#dfeaf4" opacity="0.13"/><circle cx="387" cy="568" r="1.1" fill="#dfeaf4" opacity="0.15"/><circle cx="560" cy="665" r="2.1" fill="#dfeaf4" opacity="0.06"/><circle cx="733" cy="762" r="1.1" fill="#dfeaf4" opacity="0.08"/><circle cx="906" cy="69" r="1.1" fill="#dfeaf4" opacity="0.10"/><circle cx="1079" cy="166" r="1.1" fill="#dfeaf4" opacity="0.12"/><circle cx="1252" cy="263" r="1.1" fill="#dfeaf4" opacity="0.14"/><circle cx="1425" cy="360" r="2.1" fill="#dfeaf4" opacity="0.16"/><circle cx="138" cy="457" r="1.1" fill="#dfeaf4" opacity="0.07"/><circle cx="311" cy="554" r="1.1" fill="#dfeaf4" opacity="0.09"/><circle cx="484" cy="651" r="1.1" fill="#dfeaf4" opacity="0.11"/><circle cx="657" cy="748" r="1.1" fill="#dfeaf4" opacity="0.13"/><circle cx="830" cy="55" r="2.1" fill="#dfeaf4" opacity="0.15"/><circle cx="1003" cy="152" r="1.1" fill="#dfeaf4" opacity="0.06"/><circle cx="1176" cy="249" r="1.1" fill="#dfeaf4" opacity="0.08"/><path d="M835 70V830" stroke="#e5eef6" stroke-opacity=".035" stroke-width="2"/><g><path d="M220 110C390 175 345 300 510 345S700 275 820 395 875 635 1050 680 1245 610 1390 790" fill="none" stroke="#65737e" stroke-opacity=".18" stroke-width="78.8" stroke-linecap="round"/><path d="M220 110C390 175 345 300 510 345S700 275 820 395 875 635 1050 680 1245 610 1390 790" fill="none" stroke="url(#steel)" stroke-opacity=".80" stroke-width="5" stroke-dasharray="472 1400" stroke-linecap="round"/><path d="M430 282l20 36h-40z" fill="#9ab4ca" opacity="0.64"/><path d="M555 397l20 36h-40z" fill="#9ab4ca" opacity="0.64"/><path d="M680 512l20 36h-40z" fill="#9ab4ca" opacity="0.64"/><path d="M805 282l20 36h-40z" fill="#52606a" opacity="0.12"/><path d="M930 397l20 36h-40z" fill="#52606a" opacity="0.12"/><path d="M1055 512l20 36h-40z" fill="#52606a" opacity="0.12"/><path d="M1180 282l20 36h-40z" fill="#52606a" opacity="0.12"/><path d="M1305 397l20 36h-40z" fill="#52606a" opacity="0.12"/><circle cx="598.9" cy="400.9" r="12" fill="#e3edf5" filter="url(#g)"/><g opacity="0.29"><path d="M150 760L285 620 410 690 550 550 690 645 835 510 1020 610 1180 495 1470 675V900H150Z" fill="#06101a" stroke="#728494" stroke-opacity=".22"/><path d="M230 790L405 705 570 778 740 665 900 735 1075 648 1280 730 1430 632" fill="none" stroke="#8da5ba" stroke-opacity=".18"/></g><rect x="1320" y="720" width="120" height="54" rx="13" fill="#08131d" stroke="#b9cbd9" stroke-opacity="0.29"/></g><path d="M92 808H286" stroke="#9fb2c2" stroke-opacity=".15"/><circle cx="76" cy="808" r="3" fill="#dce7f0" opacity=".5"/></svg>