<svg xmlns="http://www.w3.org/2000/svg" viewBox="0 0 1600 900"><defs><radialGradient id="bg" cx="50%" cy="46%" r="72%"><stop offset="0" stop-color="#07111b"/><stop offset=".56" stop-color="#02060b"/><stop offset="1" stop-color="#000"/></radialGradient><linearGradient id="steel" x1="0" y1="0" x2="1" y2="1"><stop stop-color="#f3f7fb"/><stop offset=".38" stop-color="#a8c3dd"/><stop offset="1" stop-color="#4f6d88"/></linearGradient><filter id="g"><feGaussianBlur stdDeviation="10" result="b"/><feMerge><feMergeNode in="b"/><feMergeNode in="SourceGraphic"/></feMerge></filter><filter id="s"><feGaussianBlur stdDeviation="34"/></filter></defs><rect width="1600" height="900" fill="url(#bg)"/><circle cx="468.7001862714787" cy="385.4616508536041" r="193.37314322795595" fill="#6e9cc5" opacity=".028" filter="url(#s)"/><path d="M98 0V900" stroke="#aac0d2" stroke-opacity=".035"/><path d="M218 0V900" stroke="#aac0d2" stroke-opacity=".035"/><path d="M338 0V900" stroke="#aac0d2" stroke-opacity=".035"/><path d="M458 0V900" stroke="#aac0d2" stroke-opacity=".035"/><path d="M578 0V900" stroke="#aac0d2" stroke-opacity=".035"/><path d="M698 0V900" stroke="#aac0d2" stroke-opacity=".035"/><path d="M818 0V900" stroke="#aac0d2" stroke-opacity=".035"/><path d="M938 0V900" stroke="#aac0d2" stroke-opacity=".035"/><path d="M1058 0V900" stroke="#aac0d2" stroke-opacity=".035"/><path d="M1178 0V900" stroke="#aac0d2" stroke-opacity=".035"/><path d="M1298 0V900" stroke="#aac0d2" stroke-opacity=".035"/><path d="M1418 0V900" stroke="#aac0d2" stroke-opacity=".035"/><path d="M1538 0V900" stroke="#aac0d2" stroke-opacity=".035"/><path d="M0 88H1600" stroke="#aac0d2" stroke-opacity=".03"/><path d="M0 208H1600" stroke="#aac0d2" stroke-opacity=".03"/><path d="M0 328H1600" stroke="#aac0d2" stroke-opacity=".03"/><path d="M0 448H1600" stroke="#aac0d2" stroke-opacity=".03"/><path d="M0 568H1600" stroke="#aac0d2" stroke-opacity=".03"/><path d="M0 688H1600" stroke="#aac0d2" stroke-opacity=".03"/><path d="M0 808H1600" stroke="#aac0d2" stroke-opacity=".03"/><circle cx="805" cy="420" r="2.1" fill="#dfeaf4" opacity="0.12"/><circle cx="978" cy="517" r="1.1" fill="#dfeaf4" opacity="0.14"/><circle cx="1151" cy="614" r="1.1" fill="#dfeaf4" opacity="0.16"/><circle cx="1324" cy="711" r="1.1" fill="#dfeaf4" opacity="0.07"/><circle cx="1497" cy="808" r="1.1" fill="#dfeaf4" opacity="0.09"/><circle cx="210" cy="115" r="2.1" fill="#dfeaf4" opacity="0.11"/><circle cx="383" cy="212" r="1.1" fill="#dfeaf4" opacity="0.13"/><circle cx="556" cy="309" r="1.1" fill="#dfeaf4" opacity="0.15"/><circle cx="729" cy="406" r="1.1" fill="#dfeaf4" opacity="0.06"/><circle cx="902" cy="503" r="1.1" fill="#dfeaf4" opacity="0.08"/><circle cx="1075" cy="600" r="2.1" fill="#dfeaf4" opacity="0.10"/><circle cx="1248" cy="697" r="1.1" fill="#dfeaf4" opacity="0.12"/><circle cx="1421" cy="794" r="1.1" fill="#dfeaf4" opacity="0.14"/><circle cx="134" cy="101" r="1.1" fill="#dfeaf4" opacity="0.16"/><circle cx="307" cy="198" r="1.1" fill="#dfeaf4" opacity="0.07"/><circle cx="480" cy="295" r="2.1" fill="#dfeaf4" opacity="0.09"/><circle cx="653" cy="392" r="1.1" fill="#dfeaf4" opacity="0.11"/><circle cx="826" cy="489" r="1.1" fill="#dfeaf4" opacity="0.13"/><path d="M185 70V830" stroke="#e5eef6" stroke-opacity=".035" stroke-width="2"/><g><rect x="335" y="155" width="930" height="590" rx="42" fill="#02070d" stroke="#a5b7c7" stroke-opacity=".28" stroke-width="2"/><path d="M335 210H1265" stroke="#9eafbf" stroke-opacity=".18"/><rect x="390" y="230" width="96" height="82" rx="15" fill="#0c1925" stroke="#8fb4d5" stroke-opacity="0.62" stroke-width="2"/><rect x="512" y="230" width="96" height="82" rx="15" fill="#0c1925" stroke="#8fb4d5" stroke-opacity="0.62" stroke-width="2"/><rect x="634" y="230" width="96" height="82" rx="15" fill="#0c1925" stroke="#8fb4d5" stroke-opacity="0.62" stroke-width="2"/><rect x="756" y="230" width="96" height="82" rx="15" fill="#0c1925" stroke="#8fb4d5" stroke-opacity="0.62" stroke-width="2"/><rect x="769" y="245" width="76" height="7" rx="3.5" fill="#a7c5df" opacity=".8"/><rect x="878" y="230" width="96" height="82" rx="15" fill="#0c1925" stroke="#8fb4d5" stroke-opacity="0.62" stroke-width="2"/><rect x="1000" y="230" width="96" height="82" rx="15" fill="#0c1925" stroke="#8fb4d5" stroke-opacity="0.62" stroke-width="2"/><rect x="390" y="342" width="96" height="82" rx="15" fill="#0c1925" stroke="#8fb4d5" stroke-opacity="0.62" stroke-width="2"/><rect x="512" y="342" width="96" height="82" rx="15" fill="#0c1925" stroke="#8fb4d5" stroke-opacity="0.62" stroke-width="2"/><rect x="525" y="357" width="76" height="7" rx="3.5" fill="#a7c5df" opacity=".8"/><rect x="634" y="342" width="96" height="82" rx="15" fill="#0c1925" stroke="#8fb4d5" stroke-opacity="0.62" stroke-width="2"/><rect x="756" y="342" width="96" height="82" rx="15" fill="#0c1925" stroke="#8fb4d5" stroke-opacity="0.62" stroke-width="2"/><rect x="878" y="342" width="96" height="82" rx="15" fill="#0c1925" stroke="#8fb4d5" stroke-opacity="0.62" stroke-width="2"/><rect x="1000" y="342" width="96" height="82" rx="15" fill="#0c1925" stroke="#8fb4d5" stroke-opacity="0.62" stroke-width="2"/><rect x="1013" y="357" width="76" height="7" rx="3.5" fill="#a7c5df" opacity=".8"/><rect x="390" y="454" width="96" height="82" rx="15" fill="#0c1925" stroke="#8fb4d5" stroke-opacity="0.62" stroke-width="2"/><rect x="512" y="454" width="96" height="82" rx="15" fill="#0c1925" stroke="#8fb4d5" stroke-opacity="0.62" stroke-width="2"/><rect x="634" y="454" width="96" height="82" rx="15" fill="#0c1925" stroke="#8fb4d5" stroke-opacity="0.62" stroke-width="2"/><rect x="756" y="454" width="96" height="82" rx="15" fill="#0c1925" stroke="#8fb4d5" stroke-opacity="0.62" stroke-width="2"/><rect x="769" y="469" width="76" height="7" rx="3.5" fill="#a7c5df" opacity=".8"/><rect x="878" y="454" width="96" height="82" rx="15" fill="#0c1925" stroke="#8fb4d5" stroke-opacity="0.62" stroke-width="2"/><rect x="1000" y="454" width="96" height="82" rx="15" fill="#0c1925" stroke="#8fb4d5" stroke-opacity="0.62" stroke-width="2"/><rect x="390" y="566" width="96" height="82" rx="15" fill="#0c1925" stroke="#8fb4d5" stroke-opacity="0.62" stroke-width="2"/><rect x="512" y="566" width="96" height="82" rx="15" fill="#0c1925" stroke="#8fb4d5" stroke-opacity="0.62" stroke-width="2"/><rect x="525" y="581" width="76" height="7" rx="3.5" fill="#a7c5df" opacity=".8"/><rect x="634" y="566" width="96" height="82" rx="15" fill="#0c1925" stroke="#8fb4d5" stroke-opacity="0.62" stroke-width="2"/><rect x="756" y="566" width="96" height="82" rx="15" fill="#0c1925" stroke="#8fb4d5" stroke-opacity="0.62" stroke-width="2"/><rect x="878" y="566" width="96" height="82" rx="15" fill="#04080d" stroke="#70808d" stroke-opacity="0.14" stroke-width="1"/><rect x="1000" y="566" width="96" height="82" rx="15" fill="#04080d" stroke="#70808d" stroke-opacity="0.14" stroke-width="1"/><path d="M455 270C620 105 930 125 1125 260S1240 565 1045 660" fill="none" stroke="url(#steel)" stroke-width="5" stroke-dasharray="929 1100" stroke-linecap="round"/><circle cx="1072.9" cy="220.3" r="10" fill="#e3edf5" filter="url(#g)"/><rect x="1120" y="110" width="108" height="38" rx="19" fill="#0c1721" stroke="#9dbddd" stroke-opacity="0.72"/></g><path d="M92 808H286" stroke="#9fb2c2" stroke-opacity=".15"/><circle cx="76" cy="808" r="3" fill="#dce7f0" opacity=".5"/></svg>