<svg xmlns="http://www.w3.org/2000/svg" viewBox="0 0 1600 900" role="img" aria-label="Engineering systems animation frame 11">
  <defs>
    <radialGradient id="bg" cx="50%" cy="45%" r="68%"><stop offset="0" stop-color="#07111b"/><stop offset=".58" stop-color="#02070d"/><stop offset="1" stop-color="#000"/></radialGradient>
    <linearGradient id="line" x1="0" y1="0" x2="1" y2="1"><stop stop-color="#dce8f2"/><stop offset=".46" stop-color="#93b7da"/><stop offset="1" stop-color="#496781"/></linearGradient>
    <linearGradient id="warm" x1="0" y1="0" x2="1" y2="1"><stop stop-color="#d8c7bb"/><stop offset="1" stop-color="#7c6558"/></linearGradient>
    <filter id="glow" x="-80%" y="-80%" width="260%" height="260%"><feGaussianBlur stdDeviation="10" result="b"/><feMerge><feMergeNode in="b"/><feMergeNode in="SourceGraphic"/></feMerge></filter>
    <filter id="soft" x="-60%" y="-60%" width="220%" height="220%"><feGaussianBlur stdDeviation="26"/></filter>
  </defs>
  <rect width="1600" height="900" fill="url(#bg)"/>
  <circle cx="580" cy="322" r="238" fill="#6e9cc5" opacity=".035" filter="url(#soft)"/>
  <g><path d="M80 0V900" stroke="#9fb0c0" stroke-opacity=".055"/><path d="M200 0V900" stroke="#9fb0c0" stroke-opacity=".055"/><path d="M320 0V900" stroke="#9fb0c0" stroke-opacity=".055"/><path d="M440 0V900" stroke="#9fb0c0" stroke-opacity=".055"/><path d="M560 0V900" stroke="#9fb0c0" stroke-opacity=".055"/><path d="M680 0V900" stroke="#9fb0c0" stroke-opacity=".055"/><path d="M800 0V900" stroke="#9fb0c0" stroke-opacity=".055"/><path d="M920 0V900" stroke="#9fb0c0" stroke-opacity=".055"/><path d="M1040 0V900" stroke="#9fb0c0" stroke-opacity=".055"/><path d="M1160 0V900" stroke="#9fb0c0" stroke-opacity=".055"/><path d="M1280 0V900" stroke="#9fb0c0" stroke-opacity=".055"/><path d="M1400 0V900" stroke="#9fb0c0" stroke-opacity=".055"/><path d="M1520 0V900" stroke="#9fb0c0" stroke-opacity=".055"/><path d="M0 90H1600" stroke="#9fb0c0" stroke-opacity=".05"/><path d="M0 210H1600" stroke="#9fb0c0" stroke-opacity=".05"/><path d="M0 330H1600" stroke="#9fb0c0" stroke-opacity=".05"/><path d="M0 450H1600" stroke="#9fb0c0" stroke-opacity=".05"/><path d="M0 570H1600" stroke="#9fb0c0" stroke-opacity=".05"/><path d="M0 690H1600" stroke="#9fb0c0" stroke-opacity=".05"/><path d="M0 810H1600" stroke="#9fb0c0" stroke-opacity=".05"/><circle cx="190" cy="140" r="2.3" fill="#dbe7f3" opacity="0.20"/><circle cx="327" cy="223" r="1.2" fill="#dbe7f3" opacity="0.19"/><circle cx="464" cy="306" r="1.2" fill="#dbe7f3" opacity="0.18"/><circle cx="601" cy="389" r="1.2" fill="#dbe7f3" opacity="0.17"/><circle cx="738" cy="472" r="2.3" fill="#dbe7f3" opacity="0.16"/><circle cx="875" cy="555" r="1.2" fill="#dbe7f3" opacity="0.15"/><circle cx="1012" cy="638" r="1.2" fill="#dbe7f3" opacity="0.14"/><circle cx="1149" cy="721" r="1.2" fill="#dbe7f3" opacity="0.13"/><circle cx="1286" cy="804" r="2.3" fill="#dbe7f3" opacity="0.12"/><circle cx="1423" cy="127" r="1.2" fill="#dbe7f3" opacity="0.11"/><circle cx="120" cy="210" r="1.2" fill="#dbe7f3" opacity="0.10"/><circle cx="257" cy="293" r="1.2" fill="#dbe7f3" opacity="0.09"/><circle cx="394" cy="376" r="2.3" fill="#dbe7f3" opacity="0.08"/><circle cx="531" cy="459" r="1.2" fill="#dbe7f3" opacity="0.25"/><circle cx="668" cy="542" r="1.2" fill="#dbe7f3" opacity="0.24"/><circle cx="805" cy="625" r="1.2" fill="#dbe7f3" opacity="0.23"/><circle cx="942" cy="708" r="2.3" fill="#dbe7f3" opacity="0.22"/><circle cx="1079" cy="791" r="1.2" fill="#dbe7f3" opacity="0.21"/><circle cx="1216" cy="114" r="1.2" fill="#dbe7f3" opacity="0.20"/><circle cx="1353" cy="197" r="1.2" fill="#dbe7f3" opacity="0.19"/><circle cx="1490" cy="280" r="2.3" fill="#dbe7f3" opacity="0.18"/><circle cx="187" cy="363" r="1.2" fill="#dbe7f3" opacity="0.17"/></g>
  <path d="M600 80V820" stroke="#c8d9e7" stroke-opacity=".06" stroke-width="2"/>
  
  <g>
    <circle cx="760" cy="450" r="225" fill="none" stroke="#98aabb" stroke-opacity=".10" stroke-width="22"/>
    <circle cx="760" cy="450" r="225" fill="none" stroke="url(#line)" stroke-width="22" stroke-linecap="round" pathLength="100" stroke-dasharray="67 100" transform="rotate(-90 760 450)"/>
    <circle cx="760" cy="450" r="150" fill="none" stroke="#b4c1cc" stroke-opacity=".10"/>
    <path d="M760.0 270.0L760.0 256.0" stroke="#d7e2ec" stroke-opacity="0.5" stroke-width="3"/><path d="M850.0 294.1L857.0 282.0" stroke="#d7e2ec" stroke-opacity="0.5" stroke-width="3"/><path d="M915.9 360.0L928.0 353.0" stroke="#d7e2ec" stroke-opacity="0.5" stroke-width="3"/><path d="M940.0 450.0L954.0 450.0" stroke="#d7e2ec" stroke-opacity="0.5" stroke-width="3"/><path d="M915.9 540.0L928.0 547.0" stroke="#d7e2ec" stroke-opacity="0.5" stroke-width="3"/><path d="M850.0 605.9L857.0 618.0" stroke="#d7e2ec" stroke-opacity="0.5" stroke-width="3"/><path d="M760.0 630.0L760.0 644.0" stroke="#d7e2ec" stroke-opacity="0.5" stroke-width="3"/><path d="M670.0 605.9L663.0 618.0" stroke="#d7e2ec" stroke-opacity="0.5" stroke-width="3"/><path d="M604.1 540.0L592.0 547.0" stroke="#d7e2ec" stroke-opacity="0.5" stroke-width="3"/><path d="M580.0 450.0L566.0 450.0" stroke="#d7e2ec" stroke-opacity="0.5" stroke-width="3"/><path d="M604.1 360.0L592.0 353.0" stroke="#d7e2ec" stroke-opacity="0.13" stroke-width="1"/><path d="M670.0 294.1L663.0 282.0" stroke="#d7e2ec" stroke-opacity="0.13" stroke-width="1"/>
    <path d="M760 450L860.3 359.7" stroke="#a8c7e4" stroke-width="5" stroke-linecap="round"/>
    <circle cx="760" cy="450" r="11" fill="#dce8f2"/>
    <rect x="1040" y="334" width="250" height="62" rx="18" fill="#07111b" stroke="#b7c8d7" stroke-opacity=".45"/>
    <rect x="1040" y="419" width="250" height="62" rx="18" fill="#07111b" stroke="#b7c8d7" stroke-opacity=".35"/>
    <rect x="1040" y="504" width="250" height="62" rx="18" fill="#07111b" stroke="#b7c8d7" stroke-opacity=".25"/>
    <path d="M985 450H1038" stroke="#8db5d9" stroke-width="4"/>
    <circle cx="979.2332645766779" cy="500.61398722736965" r="9" fill="#dce8f2" filter="url(#glow)"/>
  </g>
  <g opacity=".35"><circle cx="96" cy="804" r="3" fill="#dfe9f2"/><path d="M112 804H300" stroke="#9fb1c0" stroke-opacity=".22"/></g>
  </svg>