<svg xmlns="http://www.w3.org/2000/svg" viewBox="0 0 1600 900" role="img" aria-label="Engineering systems animation frame 19">
  <defs>
    <radialGradient id="bg" cx="50%" cy="45%" r="68%"><stop offset="0" stop-color="#07111b"/><stop offset=".58" stop-color="#02070d"/><stop offset="1" stop-color="#000"/></radialGradient>
    <linearGradient id="line" x1="0" y1="0" x2="1" y2="1"><stop stop-color="#dce8f2"/><stop offset=".46" stop-color="#93b7da"/><stop offset="1" stop-color="#496781"/></linearGradient>
    <linearGradient id="warm" x1="0" y1="0" x2="1" y2="1"><stop stop-color="#d8c7bb"/><stop offset="1" stop-color="#7c6558"/></linearGradient>
    <filter id="glow" x="-80%" y="-80%" width="260%" height="260%"><feGaussianBlur stdDeviation="10" result="b"/><feMerge><feMergeNode in="b"/><feMergeNode in="SourceGraphic"/></feMerge></filter>
    <filter id="soft" x="-60%" y="-60%" width="220%" height="220%"><feGaussianBlur stdDeviation="26"/></filter>
  </defs>
  <rect width="1600" height="900" fill="url(#bg)"/>
  <circle cx="1020" cy="170" r="150" fill="#6e9cc5" opacity=".035" filter="url(#soft)"/>
  <g><path d="M80 0V900" stroke="#9fb0c0" stroke-opacity=".055"/><path d="M200 0V900" stroke="#9fb0c0" stroke-opacity=".055"/><path d="M320 0V900" stroke="#9fb0c0" stroke-opacity=".055"/><path d="M440 0V900" stroke="#9fb0c0" stroke-opacity=".055"/><path d="M560 0V900" stroke="#9fb0c0" stroke-opacity=".055"/><path d="M680 0V900" stroke="#9fb0c0" stroke-opacity=".055"/><path d="M800 0V900" stroke="#9fb0c0" stroke-opacity=".055"/><path d="M920 0V900" stroke="#9fb0c0" stroke-opacity=".055"/><path d="M1040 0V900" stroke="#9fb0c0" stroke-opacity=".055"/><path d="M1160 0V900" stroke="#9fb0c0" stroke-opacity=".055"/><path d="M1280 0V900" stroke="#9fb0c0" stroke-opacity=".055"/><path d="M1400 0V900" stroke="#9fb0c0" stroke-opacity=".055"/><path d="M1520 0V900" stroke="#9fb0c0" stroke-opacity=".055"/><path d="M0 90H1600" stroke="#9fb0c0" stroke-opacity=".05"/><path d="M0 210H1600" stroke="#9fb0c0" stroke-opacity=".05"/><path d="M0 330H1600" stroke="#9fb0c0" stroke-opacity=".05"/><path d="M0 450H1600" stroke="#9fb0c0" stroke-opacity=".05"/><path d="M0 570H1600" stroke="#9fb0c0" stroke-opacity=".05"/><path d="M0 690H1600" stroke="#9fb0c0" stroke-opacity=".05"/><path d="M0 810H1600" stroke="#9fb0c0" stroke-opacity=".05"/><circle cx="278" cy="196" r="2.3" fill="#dbe7f3" opacity="0.08"/><circle cx="415" cy="279" r="1.2" fill="#dbe7f3" opacity="0.25"/><circle cx="552" cy="362" r="1.2" fill="#dbe7f3" opacity="0.24"/><circle cx="689" cy="445" r="1.2" fill="#dbe7f3" opacity="0.23"/><circle cx="826" cy="528" r="2.3" fill="#dbe7f3" opacity="0.22"/><circle cx="963" cy="611" r="1.2" fill="#dbe7f3" opacity="0.21"/><circle cx="1100" cy="694" r="1.2" fill="#dbe7f3" opacity="0.20"/><circle cx="1237" cy="777" r="1.2" fill="#dbe7f3" opacity="0.19"/><circle cx="1374" cy="100" r="2.3" fill="#dbe7f3" opacity="0.18"/><circle cx="1511" cy="183" r="1.2" fill="#dbe7f3" opacity="0.17"/><circle cx="208" cy="266" r="1.2" fill="#dbe7f3" opacity="0.16"/><circle cx="345" cy="349" r="1.2" fill="#dbe7f3" opacity="0.15"/><circle cx="482" cy="432" r="2.3" fill="#dbe7f3" opacity="0.14"/><circle cx="619" cy="515" r="1.2" fill="#dbe7f3" opacity="0.13"/><circle cx="756" cy="598" r="1.2" fill="#dbe7f3" opacity="0.12"/><circle cx="893" cy="681" r="1.2" fill="#dbe7f3" opacity="0.11"/><circle cx="1030" cy="764" r="2.3" fill="#dbe7f3" opacity="0.10"/><circle cx="1167" cy="87" r="1.2" fill="#dbe7f3" opacity="0.09"/><circle cx="1304" cy="170" r="1.2" fill="#dbe7f3" opacity="0.08"/><circle cx="1441" cy="253" r="1.2" fill="#dbe7f3" opacity="0.25"/><circle cx="138" cy="336" r="2.3" fill="#dbe7f3" opacity="0.24"/><circle cx="275" cy="419" r="1.2" fill="#dbe7f3" opacity="0.23"/></g>
  <path d="M936 80V820" stroke="#c8d9e7" stroke-opacity=".06" stroke-width="2"/>
  <g>
    <rect x="300" y="130" width="1000" height="640" rx="54" fill="#02080e" stroke="#8496a6" stroke-opacity=".32" stroke-width="2"/>
    <rect x="545" y="198" width="510" height="220" rx="24" fill="#07111b" stroke="#b9c7d4" stroke-opacity=".44"/>
    <rect x="605" y="245" width="390" height="126" rx="12" fill="#0b1b28" stroke="#87afd3" stroke-opacity=".58"/>
    <rect x="495" y="505" width="84" height="64" rx="13" fill="#06101a" stroke="#d0dce7" stroke-opacity="0.67" stroke-width="2"/><rect x="613" y="505" width="84" height="64" rx="13" fill="#06101a" stroke="#d0dce7" stroke-opacity="0.67" stroke-width="2"/><rect x="731" y="505" width="84" height="64" rx="13" fill="#06101a" stroke="#d0dce7" stroke-opacity="0.67" stroke-width="2"/><rect x="849" y="505" width="84" height="64" rx="13" fill="#06101a" stroke="#d0dce7" stroke-opacity="0.22" stroke-width="2"/><rect x="495" y="601" width="84" height="64" rx="13" fill="#06101a" stroke="#d0dce7" stroke-opacity="0.22" stroke-width="2"/><rect x="613" y="601" width="84" height="64" rx="13" fill="#06101a" stroke="#d0dce7" stroke-opacity="0.22" stroke-width="2"/><rect x="731" y="601" width="84" height="64" rx="13" fill="#06101a" stroke="#d0dce7" stroke-opacity="0.22" stroke-width="2"/><rect x="849" y="601" width="84" height="64" rx="13" fill="#06101a" stroke="#d0dce7" stroke-opacity="0.22" stroke-width="2"/>
    <circle cx="1152" cy="292" r="66" fill="#07111b" stroke="#c5d2dd" stroke-opacity=".55" stroke-width="3"/>
    <circle cx="1152" cy="292" r="18" fill="#8fb4d5" opacity="0.22" filter="url(#glow)"/>
    <path d="M370 240H680V610H1080" fill="none" stroke="#8fb5d7" stroke-opacity="0.68" stroke-width="3"/><path d="M370 294H800V588H1098" fill="none" stroke="#8fb5d7" stroke-opacity="0.68" stroke-width="3"/><path d="M370 348H680V566H1116" fill="none" stroke="#8fb5d7" stroke-opacity="0.68" stroke-width="3"/><path d="M370 402H800V544H1134" fill="none" stroke="#82909d" stroke-opacity="0.11" stroke-width="1.5"/><path d="M370 456H680V522H1152" fill="none" stroke="#82909d" stroke-opacity="0.11" stroke-width="1.5"/><path d="M370 510H800V500H1170" fill="none" stroke="#82909d" stroke-opacity="0.11" stroke-width="1.5"/><path d="M370 564H680V478H1188" fill="none" stroke="#82909d" stroke-opacity="0.11" stroke-width="1.5"/><path d="M370 618H800V456H1206" fill="none" stroke="#82909d" stroke-opacity="0.11" stroke-width="1.5"/>
    <rect x="725" y="440" width="150" height="74" rx="18" fill="#0e1b28" stroke="#d3dce5" stroke-opacity=".42"/>
    <circle cx="425" cy="240" r="8" fill="#dbe8f3" filter="url(#glow)"/>
  </g>
  <g opacity=".35"><circle cx="96" cy="804" r="3" fill="#dfe9f2"/><path d="M112 804H300" stroke="#9fb1c0" stroke-opacity=".22"/></g>
  </svg>